<?xml version="1.0" encoding="UTF-8" standalone="no"?><svg xmlns="http://www.w3.org/2000/svg" xmlns:xlink="http://www.w3.org/1999/xlink" contentScriptType="application/ecmascript" contentStyleType="text/css" height="463px" preserveAspectRatio="none" style="width:431px;height:463px;background:#FFFFFF;" version="1.1" viewBox="0 0 431 463" width="431px" zoomAndPan="magnify"><defs><filter height="300%" id="fwzwi1i8041zg" width="300%" x="-1" y="-1"><feGaussianBlur result="blurOut" stdDeviation="2.0"/><feColorMatrix in="blurOut" result="blurOut2" type="matrix" values="0 0 0 0 0 0 0 0 0 0 0 0 0 0 0 0 0 0 .4 0"/><feOffset dx="4.0" dy="4.0" in="blurOut2" result="blurOut3"/><feBlend in="SourceGraphic" in2="blurOut3" mode="normal"/></filter></defs><g><text fill="#000000" font-family="sans-serif" font-size="18" lengthAdjust="spacing" textLength="248" x="88.25" y="44.1797">Pegasus Agoric Peg example</text><rect fill="#DDDDDD" height="385.1504" style="stroke:#A80036;stroke-width:1.0;" width="259.5" x="1" y="55.9766"/><text fill="#000000" font-family="sans-serif" font-size="13" font-weight="bold" lengthAdjust="spacing" textLength="44" x="108.75" y="68.5449">Agoric</text><rect fill="#DDDDDD" height="385.1504" style="stroke:#A80036;stroke-width:1.0;" width="109" x="314.5" y="55.9766"/><text fill="#000000" font-family="sans-serif" font-size="13" font-weight="bold" lengthAdjust="spacing" textLength="30" x="354" y="68.5449">Gaia</text><line style="stroke:#A80036;stroke-width:1.0;stroke-dasharray:5.0,5.0;" x1="26" x2="26" y1="158.7754" y2="354.6387"/><line style="stroke:#A80036;stroke-width:1.0;stroke-dasharray:5.0,5.0;" x1="128.5" x2="128.5" y1="158.7754" y2="354.6387"/><line style="stroke:#A80036;stroke-width:1.0;stroke-dasharray:5.0,5.0;" x1="231.5" x2="231.5" y1="158.7754" y2="354.6387"/><line style="stroke:#A80036;stroke-width:1.0;stroke-dasharray:5.0,5.0;" x1="287.5" x2="287.5" y1="158.7754" y2="354.6387"/><line style="stroke:#A80036;stroke-width:1.0;stroke-dasharray:5.0,5.0;" x1="342.5" x2="342.5" y1="158.7754" y2="354.6387"/><line style="stroke:#A80036;stroke-width:1.0;stroke-dasharray:5.0,5.0;" x1="398.5" x2="398.5" y1="158.7754" y2="354.6387"/><text fill="#000000" font-family="sans-serif" font-size="14" lengthAdjust="spacing" textLength="36" x="5" y="155.8223">BobA</text><ellipse cx="26" cy="85.2871" fill="#FEFECE" filter="url(#fwzwi1i8041zg)" rx="8" ry="8" style="stroke:#A80036;stroke-width:2.0;"/><path d="M26,93.2871 L26,120.2871 M13,101.2871 L39,101.2871 M26,120.2871 L13,135.2871 M26,120.2871 L39,135.2871 " fill="none" filter="url(#fwzwi1i8041zg)" style="stroke:#A80036;stroke-width:2.0;"/><text fill="#000000" font-family="sans-serif" font-size="14" lengthAdjust="spacing" textLength="36" x="5" y="367.1738">BobA</text><ellipse cx="26" cy="380.127" fill="#FEFECE" filter="url(#fwzwi1i8041zg)" rx="8" ry="8" style="stroke:#A80036;stroke-width:2.0;"/><path d="M26,388.127 L26,415.127 M13,396.127 L39,396.127 M26,415.127 L13,430.127 M26,415.127 L39,430.127 " fill="none" filter="url(#fwzwi1i8041zg)" style="stroke:#A80036;stroke-width:2.0;"/><text fill="#000000" font-family="sans-serif" font-size="14" lengthAdjust="spacing" textLength="63" x="94.5" y="155.8223">SimpleEx</text><ellipse cx="129" cy="126.2871" fill="#FEFECE" filter="url(#fwzwi1i8041zg)" rx="12" ry="12" style="stroke:#A80036;stroke-width:2.0;"/><line style="stroke:#A80036;stroke-width:2.0;" x1="117" x2="141" y1="140.2871" y2="140.2871"/><text fill="#000000" font-family="sans-serif" font-size="14" lengthAdjust="spacing" textLength="63" x="94.5" y="367.1738">SimpleEx</text><ellipse cx="129" cy="386.127" fill="#FEFECE" filter="url(#fwzwi1i8041zg)" rx="12" ry="12" style="stroke:#A80036;stroke-width:2.0;"/><line style="stroke:#A80036;stroke-width:2.0;" x1="117" x2="141" y1="400.127" y2="400.127"/><text fill="#000000" font-family="sans-serif" font-size="14" lengthAdjust="spacing" textLength="43" x="207.5" y="155.8223">AliceA</text><ellipse cx="232" cy="85.2871" fill="#FEFECE" filter="url(#fwzwi1i8041zg)" rx="8" ry="8" style="stroke:#A80036;stroke-width:2.0;"/><path d="M232,93.2871 L232,120.2871 M219,101.2871 L245,101.2871 M232,120.2871 L219,135.2871 M232,120.2871 L245,135.2871 " fill="none" filter="url(#fwzwi1i8041zg)" style="stroke:#A80036;stroke-width:2.0;"/><text fill="#000000" font-family="sans-serif" font-size="14" lengthAdjust="spacing" textLength="43" x="207.5" y="367.1738">AliceA</text><ellipse cx="232" cy="380.127" fill="#FEFECE" filter="url(#fwzwi1i8041zg)" rx="8" ry="8" style="stroke:#A80036;stroke-width:2.0;"/><path d="M232,388.127 L232,415.127 M219,396.127 L245,396.127 M232,415.127 L219,430.127 M232,415.127 L245,430.127 " fill="none" filter="url(#fwzwi1i8041zg)" style="stroke:#A80036;stroke-width:2.0;"/><text fill="#000000" font-family="sans-serif" font-size="14" lengthAdjust="spacing" textLength="36" x="266.5" y="155.8223">Relay</text><ellipse cx="287.5" cy="126.2871" fill="#FEFECE" filter="url(#fwzwi1i8041zg)" rx="12" ry="12" style="stroke:#A80036;stroke-width:2.0;"/><line style="stroke:#A80036;stroke-width:2.0;" x1="275.5" x2="299.5" y1="140.2871" y2="140.2871"/><text fill="#000000" font-family="sans-serif" font-size="14" lengthAdjust="spacing" textLength="36" x="266.5" y="367.1738">Relay</text><ellipse cx="287.5" cy="386.127" fill="#FEFECE" filter="url(#fwzwi1i8041zg)" rx="12" ry="12" style="stroke:#A80036;stroke-width:2.0;"/><line style="stroke:#A80036;stroke-width:2.0;" x1="275.5" x2="299.5" y1="400.127" y2="400.127"/><text fill="#000000" font-family="sans-serif" font-size="14" lengthAdjust="spacing" textLength="43" x="318.5" y="155.8223">AliceG</text><ellipse cx="343" cy="85.2871" fill="#FEFECE" filter="url(#fwzwi1i8041zg)" rx="8" ry="8" style="stroke:#A80036;stroke-width:2.0;"/><path d="M343,93.2871 L343,120.2871 M330,101.2871 L356,101.2871 M343,120.2871 L330,135.2871 M343,120.2871 L356,135.2871 " fill="none" filter="url(#fwzwi1i8041zg)" style="stroke:#A80036;stroke-width:2.0;"/><text fill="#000000" font-family="sans-serif" font-size="14" lengthAdjust="spacing" textLength="43" x="318.5" y="367.1738">AliceG</text><ellipse cx="343" cy="380.127" fill="#FEFECE" filter="url(#fwzwi1i8041zg)" rx="8" ry="8" style="stroke:#A80036;stroke-width:2.0;"/><path d="M343,388.127 L343,415.127 M330,396.127 L356,396.127 M343,415.127 L330,430.127 M343,415.127 L356,430.127 " fill="none" filter="url(#fwzwi1i8041zg)" style="stroke:#A80036;stroke-width:2.0;"/><text fill="#000000" font-family="sans-serif" font-size="14" lengthAdjust="spacing" textLength="36" x="377.5" y="155.8223">BobG</text><ellipse cx="398.5" cy="85.2871" fill="#FEFECE" filter="url(#fwzwi1i8041zg)" rx="8" ry="8" style="stroke:#A80036;stroke-width:2.0;"/><path d="M398.5,93.2871 L398.5,120.2871 M385.5,101.2871 L411.5,101.2871 M398.5,120.2871 L385.5,135.2871 M398.5,120.2871 L411.5,135.2871 " fill="none" filter="url(#fwzwi1i8041zg)" style="stroke:#A80036;stroke-width:2.0;"/><text fill="#000000" font-family="sans-serif" font-size="14" lengthAdjust="spacing" textLength="36" x="377.5" y="367.1738">BobG</text><ellipse cx="398.5" cy="380.127" fill="#FEFECE" filter="url(#fwzwi1i8041zg)" rx="8" ry="8" style="stroke:#A80036;stroke-width:2.0;"/><path d="M398.5,388.127 L398.5,415.127 M385.5,396.127 L411.5,396.127 M398.5,415.127 L385.5,430.127 M398.5,415.127 L411.5,430.127 " fill="none" filter="url(#fwzwi1i8041zg)" style="stroke:#A80036;stroke-width:2.0;"/><polygon fill="#A80036" points="243,186.0859,233,190.0859,243,194.0859,239,190.0859" style="stroke:#A80036;stroke-width:1.0;"/><line style="stroke:#A80036;stroke-width:1.0;" x1="237" x2="342" y1="190.0859" y2="190.0859"/><text fill="#000000" font-family="sans-serif" font-size="13" font-weight="bold" lengthAdjust="spacing" textLength="9" x="249" y="185.3438">1</text><text fill="#000000" font-family="sans-serif" font-size="13" lengthAdjust="spacing" textLength="62" x="262" y="185.3438">100 Atom</text><polygon fill="#A80036" points="140,215.3965,130,219.3965,140,223.3965,136,219.3965" style="stroke:#A80036;stroke-width:1.0;"/><line style="stroke:#A80036;stroke-width:1.0;" x1="134" x2="231" y1="219.3965" y2="219.3965"/><text fill="#000000" font-family="sans-serif" font-size="13" font-weight="bold" lengthAdjust="spacing" textLength="9" x="146" y="214.6543">2</text><text fill="#000000" font-family="sans-serif" font-size="13" lengthAdjust="spacing" textLength="54" x="159" y="214.6543">75 Atom</text><polygon fill="#A80036" points="117,244.707,127,248.707,117,252.707,121,248.707" style="stroke:#A80036;stroke-width:1.0;"/><line style="stroke:#A80036;stroke-width:1.0;" x1="26" x2="123" y1="248.707" y2="248.707"/><text fill="#000000" font-family="sans-serif" font-size="13" font-weight="bold" lengthAdjust="spacing" textLength="9" x="33" y="243.9648">3</text><text fill="#000000" font-family="sans-serif" font-size="13" lengthAdjust="spacing" textLength="66" x="46" y="243.9648">200 Moola</text><polygon fill="#A80036" points="220,274.0176,230,278.0176,220,282.0176,224,278.0176" style="stroke:#A80036;stroke-width:1.0;"/><line style="stroke:#A80036;stroke-width:1.0;" x1="129" x2="226" y1="278.0176" y2="278.0176"/><text fill="#000000" font-family="sans-serif" font-size="13" font-weight="bold" lengthAdjust="spacing" textLength="9" x="136" y="273.2754">4</text><text fill="#000000" font-family="sans-serif" font-size="13" lengthAdjust="spacing" textLength="66" x="149" y="273.2754">200 Moola</text><polygon fill="#A80036" points="37,303.3281,27,307.3281,37,311.3281,33,307.3281" style="stroke:#A80036;stroke-width:1.0;"/><line style="stroke:#A80036;stroke-width:1.0;" x1="31" x2="128" y1="307.3281" y2="307.3281"/><text fill="#000000" font-family="sans-serif" font-size="13" font-weight="bold" lengthAdjust="spacing" textLength="9" x="43" y="302.5859">5</text><text fill="#000000" font-family="sans-serif" font-size="13" lengthAdjust="spacing" textLength="54" x="56" y="302.5859">75 Atom</text><polygon fill="#A80036" points="386.5,332.6387,396.5,336.6387,386.5,340.6387,390.5,336.6387" style="stroke:#A80036;stroke-width:1.0;"/><line style="stroke:#A80036;stroke-width:1.0;" x1="26" x2="392.5" y1="336.6387" y2="336.6387"/><text fill="#000000" font-family="sans-serif" font-size="13" font-weight="bold" lengthAdjust="spacing" textLength="9" x="33" y="331.8965">6</text><text fill="#000000" font-family="sans-serif" font-size="13" lengthAdjust="spacing" textLength="54" x="46" y="331.8965">20 Atom</text><text fill="#888888" font-family="sans-serif" font-size="10" lengthAdjust="spacing" textLength="176" x="248.5" y="14.668">Agoric Systems Operating Company.</text><text fill="#888888" font-family="sans-serif" font-size="10" lengthAdjust="spacing" textLength="29" x="197.75" y="454.7949">v0.0.1</text><!--MD5=[91c264133c85c5fc876e44e87d7d74ab]
@startuml
'https://plantuml.com/sequence-diagram
header Agoric Systems Operating Company.
footer v0.0.1
title Pegasus Agoric Peg example

autonumber

box Agoric
actor BobA
entity SimpleEx
actor AliceA
end box

entity Relay
box Gaia
actor AliceG
actor BobG
end box

AliceG -> AliceA: 100 Atom
AliceA -> SimpleEx: 75 Atom
BobA -> SimpleEx: 200 Moola
SimpleEx -> AliceA: 200 Moola
SimpleEx -> BobA: 75 Atom
BobA -> BobG: 20 Atom

@enduml

@startuml
header Agoric Systems Operating Company.
footer v0.0.1
title Pegasus Agoric Peg example

autonumber

box Agoric
actor BobA
entity SimpleEx
actor AliceA
end box

entity Relay
box Gaia
actor AliceG
actor BobG
end box

AliceG -> AliceA: 100 Atom
AliceA -> SimpleEx: 75 Atom
BobA -> SimpleEx: 200 Moola
SimpleEx -> AliceA: 200 Moola
SimpleEx -> BobA: 75 Atom
BobA -> BobG: 20 Atom

@enduml

PlantUML version 1.2021.10(Mon Aug 30 06:43:48 PDT 2021)
(GPL source distribution)
Java Runtime: OpenJDK Runtime Environment
JVM: OpenJDK 64-Bit Server VM
Default Encoding: UTF-8
Language: en
Country: US
--></g></svg>