<?xml version="1.0" encoding="us-ascii" standalone="no"?><svg xmlns="http://www.w3.org/2000/svg" xmlns:xlink="http://www.w3.org/1999/xlink" contentStyleType="text/css" height="448px" preserveAspectRatio="none" style="width:431px;height:448px;background:#FFFFFF;" version="1.1" viewBox="0 0 431 448" width="431px" zoomAndPan="magnify"><defs/><g><text fill="#000000" font-family="sans-serif" font-size="14" font-weight="bold" lengthAdjust="spacing" textLength="206" x="108.75" y="41.3125">Pegasus Agoric Peg example</text><rect fill="#DDDDDD" height="371.1504" style="stroke:#181818;stroke-width:0.5;" width="259.5" x="1" y="56.2656"/><text fill="#000000" font-family="sans-serif" font-size="13" font-weight="bold" lengthAdjust="spacing" textLength="44" x="108.75" y="68.834">Agoric</text><rect fill="#DDDDDD" height="371.1504" style="stroke:#181818;stroke-width:0.5;" width="109" x="314.5" y="56.2656"/><text fill="#000000" font-family="sans-serif" font-size="13" font-weight="bold" lengthAdjust="spacing" textLength="30" x="354" y="68.834">Gaia</text><line style="stroke:#181818;stroke-width:0.5;stroke-dasharray:5.0,5.0;" x1="26" x2="26" y1="152.0645" y2="347.9277"/><line style="stroke:#181818;stroke-width:0.5;stroke-dasharray:5.0,5.0;" x1="128.5" x2="128.5" y1="152.0645" y2="347.9277"/><line style="stroke:#181818;stroke-width:0.5;stroke-dasharray:5.0,5.0;" x1="231.5" x2="231.5" y1="152.0645" y2="347.9277"/><line style="stroke:#181818;stroke-width:0.5;stroke-dasharray:5.0,5.0;" x1="287.5" x2="287.5" y1="152.0645" y2="347.9277"/><line style="stroke:#181818;stroke-width:0.5;stroke-dasharray:5.0,5.0;" x1="342.5" x2="342.5" y1="152.0645" y2="347.9277"/><line style="stroke:#181818;stroke-width:0.5;stroke-dasharray:5.0,5.0;" x1="398.5" x2="398.5" y1="152.0645" y2="347.9277"/><text fill="#000000" font-family="sans-serif" font-size="14" lengthAdjust="spacing" textLength="36" x="5" y="149.1113">BobA</text><ellipse cx="26" cy="84.0762" fill="#E2E2F0" rx="8" ry="8" style="stroke:#181818;stroke-width:0.5;"/><path d="M26,92.0762 L26,119.0762 M13,100.0762 L39,100.0762 M26,119.0762 L13,134.0762 M26,119.0762 L39,134.0762 " fill="none" style="stroke:#181818;stroke-width:0.5;"/><text fill="#000000" font-family="sans-serif" font-size="14" lengthAdjust="spacing" textLength="36" x="5" y="360.4629">BobA</text><ellipse cx="26" cy="371.916" fill="#E2E2F0" rx="8" ry="8" style="stroke:#181818;stroke-width:0.5;"/><path d="M26,379.916 L26,406.916 M13,387.916 L39,387.916 M26,406.916 L13,421.916 M26,406.916 L39,421.916 " fill="none" style="stroke:#181818;stroke-width:0.5;"/><text fill="#000000" font-family="sans-serif" font-size="14" lengthAdjust="spacing" textLength="63" x="94.5" y="149.1113">SimpleEx</text><ellipse cx="129" cy="119.5762" fill="#E2E2F0" rx="12" ry="12" style="stroke:#181818;stroke-width:0.5;"/><line style="stroke:#181818;stroke-width:0.5;" x1="117" x2="141" y1="133.5762" y2="133.5762"/><text fill="#000000" font-family="sans-serif" font-size="14" lengthAdjust="spacing" textLength="63" x="94.5" y="360.4629">SimpleEx</text><ellipse cx="129" cy="379.416" fill="#E2E2F0" rx="12" ry="12" style="stroke:#181818;stroke-width:0.5;"/><line style="stroke:#181818;stroke-width:0.5;" x1="117" x2="141" y1="393.416" y2="393.416"/><text fill="#000000" font-family="sans-serif" font-size="14" lengthAdjust="spacing" textLength="43" x="207.5" y="149.1113">AliceA</text><ellipse cx="232" cy="84.0762" fill="#E2E2F0" rx="8" ry="8" style="stroke:#181818;stroke-width:0.5;"/><path d="M232,92.0762 L232,119.0762 M219,100.0762 L245,100.0762 M232,119.0762 L219,134.0762 M232,119.0762 L245,134.0762 " fill="none" style="stroke:#181818;stroke-width:0.5;"/><text fill="#000000" font-family="sans-serif" font-size="14" lengthAdjust="spacing" textLength="43" x="207.5" y="360.4629">AliceA</text><ellipse cx="232" cy="371.916" fill="#E2E2F0" rx="8" ry="8" style="stroke:#181818;stroke-width:0.5;"/><path d="M232,379.916 L232,406.916 M219,387.916 L245,387.916 M232,406.916 L219,421.916 M232,406.916 L245,421.916 " fill="none" style="stroke:#181818;stroke-width:0.5;"/><text fill="#000000" font-family="sans-serif" font-size="14" lengthAdjust="spacing" textLength="36" x="266.5" y="149.1113">Relay</text><ellipse cx="287.5" cy="119.5762" fill="#E2E2F0" rx="12" ry="12" style="stroke:#181818;stroke-width:0.5;"/><line style="stroke:#181818;stroke-width:0.5;" x1="275.5" x2="299.5" y1="133.5762" y2="133.5762"/><text fill="#000000" font-family="sans-serif" font-size="14" lengthAdjust="spacing" textLength="36" x="266.5" y="360.4629">Relay</text><ellipse cx="287.5" cy="379.416" fill="#E2E2F0" rx="12" ry="12" style="stroke:#181818;stroke-width:0.5;"/><line style="stroke:#181818;stroke-width:0.5;" x1="275.5" x2="299.5" y1="393.416" y2="393.416"/><text fill="#000000" font-family="sans-serif" font-size="14" lengthAdjust="spacing" textLength="43" x="318.5" y="149.1113">AliceG</text><ellipse cx="343" cy="84.0762" fill="#E2E2F0" rx="8" ry="8" style="stroke:#181818;stroke-width:0.5;"/><path d="M343,92.0762 L343,119.0762 M330,100.0762 L356,100.0762 M343,119.0762 L330,134.0762 M343,119.0762 L356,134.0762 " fill="none" style="stroke:#181818;stroke-width:0.5;"/><text fill="#000000" font-family="sans-serif" font-size="14" lengthAdjust="spacing" textLength="43" x="318.5" y="360.4629">AliceG</text><ellipse cx="343" cy="371.916" fill="#E2E2F0" rx="8" ry="8" style="stroke:#181818;stroke-width:0.5;"/><path d="M343,379.916 L343,406.916 M330,387.916 L356,387.916 M343,406.916 L330,421.916 M343,406.916 L356,421.916 " fill="none" style="stroke:#181818;stroke-width:0.5;"/><text fill="#000000" font-family="sans-serif" font-size="14" lengthAdjust="spacing" textLength="36" x="377.5" y="149.1113">BobG</text><ellipse cx="398.5" cy="84.0762" fill="#E2E2F0" rx="8" ry="8" style="stroke:#181818;stroke-width:0.5;"/><path d="M398.5,92.0762 L398.5,119.0762 M385.5,100.0762 L411.5,100.0762 M398.5,119.0762 L385.5,134.0762 M398.5,119.0762 L411.5,134.0762 " fill="none" style="stroke:#181818;stroke-width:0.5;"/><text fill="#000000" font-family="sans-serif" font-size="14" lengthAdjust="spacing" textLength="36" x="377.5" y="360.4629">BobG</text><ellipse cx="398.5" cy="371.916" fill="#E2E2F0" rx="8" ry="8" style="stroke:#181818;stroke-width:0.5;"/><path d="M398.5,379.916 L398.5,406.916 M385.5,387.916 L411.5,387.916 M398.5,406.916 L385.5,421.916 M398.5,406.916 L411.5,421.916 " fill="none" style="stroke:#181818;stroke-width:0.5;"/><polygon fill="#181818" points="243,179.375,233,183.375,243,187.375,239,183.375" style="stroke:#181818;stroke-width:1.0;"/><line style="stroke:#181818;stroke-width:1.0;" x1="237" x2="342" y1="183.375" y2="183.375"/><text fill="#000000" font-family="sans-serif" font-size="13" font-weight="bold" lengthAdjust="spacing" textLength="9" x="249" y="178.6328">1</text><text fill="#000000" font-family="sans-serif" font-size="13" lengthAdjust="spacing" textLength="62" x="262" y="178.6328">100 Atom</text><polygon fill="#181818" points="140,208.6855,130,212.6855,140,216.6855,136,212.6855" style="stroke:#181818;stroke-width:1.0;"/><line style="stroke:#181818;stroke-width:1.0;" x1="134" x2="231" y1="212.6855" y2="212.6855"/><text fill="#000000" font-family="sans-serif" font-size="13" font-weight="bold" lengthAdjust="spacing" textLength="9" x="146" y="207.9434">2</text><text fill="#000000" font-family="sans-serif" font-size="13" lengthAdjust="spacing" textLength="54" x="159" y="207.9434">75 Atom</text><polygon fill="#181818" points="117,237.9961,127,241.9961,117,245.9961,121,241.9961" style="stroke:#181818;stroke-width:1.0;"/><line style="stroke:#181818;stroke-width:1.0;" x1="26" x2="123" y1="241.9961" y2="241.9961"/><text fill="#000000" font-family="sans-serif" font-size="13" font-weight="bold" lengthAdjust="spacing" textLength="9" x="33" y="237.2539">3</text><text fill="#000000" font-family="sans-serif" font-size="13" lengthAdjust="spacing" textLength="66" x="46" y="237.2539">200 Moola</text><polygon fill="#181818" points="220,267.3066,230,271.3066,220,275.3066,224,271.3066" style="stroke:#181818;stroke-width:1.0;"/><line style="stroke:#181818;stroke-width:1.0;" x1="129" x2="226" y1="271.3066" y2="271.3066"/><text fill="#000000" font-family="sans-serif" font-size="13" font-weight="bold" lengthAdjust="spacing" textLength="9" x="136" y="266.5645">4</text><text fill="#000000" font-family="sans-serif" font-size="13" lengthAdjust="spacing" textLength="66" x="149" y="266.5645">200 Moola</text><polygon fill="#181818" points="37,296.6172,27,300.6172,37,304.6172,33,300.6172" style="stroke:#181818;stroke-width:1.0;"/><line style="stroke:#181818;stroke-width:1.0;" x1="31" x2="128" y1="300.6172" y2="300.6172"/><text fill="#000000" font-family="sans-serif" font-size="13" font-weight="bold" lengthAdjust="spacing" textLength="9" x="43" y="295.875">5</text><text fill="#000000" font-family="sans-serif" font-size="13" lengthAdjust="spacing" textLength="54" x="56" y="295.875">75 Atom</text><polygon fill="#181818" points="386.5,325.9277,396.5,329.9277,386.5,333.9277,390.5,329.9277" style="stroke:#181818;stroke-width:1.0;"/><line style="stroke:#181818;stroke-width:1.0;" x1="26" x2="392.5" y1="329.9277" y2="329.9277"/><text fill="#000000" font-family="sans-serif" font-size="13" font-weight="bold" lengthAdjust="spacing" textLength="9" x="33" y="325.1855">6</text><text fill="#000000" font-family="sans-serif" font-size="13" lengthAdjust="spacing" textLength="54" x="46" y="325.1855">20 Atom</text><text fill="#888888" font-family="sans-serif" font-size="10" lengthAdjust="spacing" textLength="176" x="247.5" y="14.668">Agoric Systems Operating Company.</text><text fill="#888888" font-family="sans-serif" font-size="10" lengthAdjust="spacing" textLength="29" x="197.25" y="438.084">v0.0.1</text><!--SRC=[ROx1JeH038RlVOhUF2sm9iQ4WmaQmybet2SeKDb9PgOuKmoylOn0TeqUs-__l_Rch3h4Ciy7Irv7PxDMN1xvSsJVyg4pr0ToS6RgE63LIp0jdkQex2A-3Xn8ZU_nITn0VixWGqINu5UH5TaHrAXbVEEUuXZtzZ8YJ-G6om0qglZHDHm06fcs352h4l1HcWhOBvOPJoOLdgSDLTQqd627Imtsr3jRcdz4DHcwpjONPtsfhGWF3vkmn6DHOANYLbGbj9ykyVvkPUcnt-HsgRs8M89zTotzdoRBNsTwC3NMxJS0]--></g></svg>