<?xml version="1.0" encoding="us-ascii" standalone="no"?><svg xmlns="http://www.w3.org/2000/svg" xmlns:xlink="http://www.w3.org/1999/xlink" contentStyleType="text/css" height="735px" preserveAspectRatio="none" style="width:439px;height:735px;background:#FFFFFF;" version="1.1" viewBox="0 0 439 735" width="439px" zoomAndPan="magnify"><defs/><g><text fill="#888888" font-family="sans-serif" font-size="10" lengthAdjust="spacing" textLength="176" x="249" y="9.668">Agoric Systems Operating Company.</text><text fill="#000000" font-family="sans-serif" font-size="14" font-weight="bold" lengthAdjust="spacing" textLength="213" x="106" y="36.3125">Pegasus Component Diagram</text><!--cluster Agoric Chain--><g id="cluster_Agoric Chain"><path d="M6,66.2656 C6,56.2656 143.5,56.2656 143.5,56.2656 C143.5,56.2656 281,56.2656 281,66.2656 L281,401.7256 C281,411.7256 143.5,411.7256 143.5,411.7256 C143.5,411.7256 6,411.7256 6,401.7256 L6,66.2656 " fill="none" style="stroke:#181818;stroke-width:1.0;"/><path d="M6,66.2656 C6,76.2656 143.5,76.2656 143.5,76.2656 C143.5,76.2656 281,76.2656 281,66.2656 " fill="none" style="stroke:#181818;stroke-width:1.0;"/><text fill="#000000" font-family="sans-serif" font-size="14" font-weight="bold" lengthAdjust="spacing" textLength="92" x="97.5" y="91.8008">Agoric Chain</text></g><!--cluster Cosmos Chain--><g id="cluster_Cosmos Chain"><path d="M268,445.7256 C268,435.7256 345,435.7256 345,435.7256 C345,435.7256 422,435.7256 422,445.7256 L422,689.7056 C422,699.7056 345,699.7056 345,699.7056 C345,699.7056 268,699.7056 268,689.7056 L268,445.7256 " fill="none" style="stroke:#181818;stroke-width:1.0;"/><path d="M268,445.7256 C268,455.7256 345,455.7256 345,455.7256 C345,455.7256 422,455.7256 422,445.7256 " fill="none" style="stroke:#181818;stroke-width:1.0;"/><text fill="#000000" font-family="sans-serif" font-size="14" font-weight="bold" lengthAdjust="spacing" textLength="104" x="293" y="471.2608">Cosmos Chain</text></g><g id="cluster_##11"><path d="M171.9037,463.1146 C174.9718,457.8391 178.7511,457.9123 181.8364,463.0983 C184.3504,457.3668 189.5411,455.5627 194.078,460.8511 C197.4688,455.2543 202.3977,455.5889 204.9865,461.6045 C207.8021,456.6757 210.7913,457.1908 214.2921,460.8631 C218.9307,455.9583 223.3526,456.0665 226.4353,462.5257 C229.9779,456.2698 235.1584,457.985 238.1961,463.0501 C244.4394,466.9128 243.5032,472.6192 238.0385,476.3431 C244.2866,479.173 244.1397,483.6098 239.3708,487.7288 C245.6026,489.4253 247.1156,493.8306 242.4338,498.6016 C248.1074,501.6216 248.3756,504.8377 243.7327,509.1304 C247.9928,512.8938 247.1997,518.4022 241.8784,520.6193 C247.813,525.7496 245.8404,530.1298 239.4618,532.8214 C245.2384,536.7092 245.1004,541.0239 238.8252,544.2397 C244.2734,548.2545 243.6283,553.4798 237.9536,556.7177 C234.5101,562.7439 230.3462,563.1943 225.9168,557.7525 C224.579,564.3627 221.2516,565.7676 215.5286,562.2507 C213.0216,568.487 209.4665,567.823 205.1119,564.2035 C199.992,569.3067 195.8246,568.9806 192.6327,562.1819 C187.5467,565.6817 183.9015,564.5977 181.8955,558.673 C177.5281,563.8489 173.671,562.8983 170.8799,557.0918 C164.5621,553.4294 165.5054,549.8833 170.2449,545.6093 C163.6359,543.0053 163.7673,538.4295 168.3179,533.9769 C162.6258,531.3977 162.3181,526.4961 166.8755,522.6157 C161.678,519.2832 160.467,514.2473 166.3605,510.4456 C161.9986,506.5852 163.1911,501.1851 168.6224,499.3149 C163.0514,495.4503 162.3526,490.2614 168.1071,485.9598 C164.3933,482.8602 164.4486,477.9007 169.386,475.901 C164.7852,470.9062 165.7207,465.986 171.9037,463.1146 " fill="none" style="stroke:#181818;stroke-width:1.0;"/></g><!--entity alice--><g id="elem_alice"><ellipse cx="217" cy="114.7656" fill="#F1F1F1" rx="8" ry="8" style="stroke:#181818;stroke-width:0.5;"/><path d="M217,122.7656 L217,149.7656 M204,130.7656 L230,130.7656 M217,149.7656 L204,164.7656 M217,149.7656 L230,164.7656 " fill="none" style="stroke:#181818;stroke-width:0.5;"/><text fill="#000000" font-family="sans-serif" font-size="14" lengthAdjust="spacing" textLength="33" x="200.5" y="179.8008">Alice</text></g><!--entity gov--><g id="elem_gov"><path d="M32.4617,251.8759 C36.1914,245.4152 40.0998,245.9999 44.3696,251.3303 C47.6039,246.3751 52.1039,245.7964 55.6801,250.9476 C59.2421,245.7189 63.1081,243.8992 67.6999,249.8393 C71.675,243.9251 75.3681,243.4398 80.0217,249.1181 C84.3572,244.1691 88.6548,243.8722 91.678,250.4455 C95.8246,245.7702 99.3147,245.5941 103.2542,250.6908 C106.7577,245.1941 111.0107,244.545 114.5214,250.6838 C118.8315,245.6349 124.8111,245.1144 127.6172,252.2945 C136.5571,254.2479 137.3451,261.6138 131.1146,267.141 C137.538,273.3762 135.6164,280.4132 127.3008,283.1335 C124.3721,289.6487 119.3511,289.8103 115.2192,284.3471 C112.6067,289.4258 107.6697,290.4276 103.718,285.9607 C100.4539,292.7823 96.1286,294.8901 89.9877,289.0901 C86.9021,295.4769 83.4,294.9823 79.0457,290.3498 C74.4707,295.4181 70.5941,296.0661 66.8665,289.4653 C62.0695,293.3051 58.6578,292.8756 55.6526,287.3255 C50.6539,293.8132 45.7739,293.0753 42.7778,285.4931 C37.891,290.6477 33.0682,287.5801 31.4878,282.0119 C22.9156,278.8454 21.6954,273.3827 27.6888,266.621 C22.2357,260.3025 23.4285,253.5052 32.4617,251.8759 " fill="#F1F1F1" style="stroke:#181818;stroke-width:0.5;"/><text fill="#000000" font-family="sans-serif" font-size="14" lengthAdjust="spacing" textLength="81" x="37.5" y="271.2908">Governance</text></g><!--entity dIBC--><g id="elem_dIBC"><polygon fill="#F1F1F1" points="141,359.2456,151,349.2456,265,349.2456,265,385.7339,255,395.7339,141,395.7339,141,359.2456" style="stroke:#181818;stroke-width:0.5;"/><line style="stroke:#181818;stroke-width:0.5;" x1="255" x2="265" y1="359.2456" y2="349.2456"/><line style="stroke:#181818;stroke-width:0.5;" x1="141" x2="255" y1="359.2456" y2="359.2456"/><line style="stroke:#181818;stroke-width:0.5;" x1="255" x2="255" y1="359.2456" y2="395.7339"/><text fill="#000000" font-family="sans-serif" font-size="14" lengthAdjust="spacing" textLength="84" x="156" y="382.7808">Dynamic IBC</text></g><!--entity pegasus--><g id="elem_pegasus"><polygon fill="#F1F1F1" points="169,252.7556,179,242.7556,265,242.7556,265,279.2439,255,289.2439,169,289.2439,169,252.7556" style="stroke:#181818;stroke-width:0.5;"/><line style="stroke:#181818;stroke-width:0.5;" x1="255" x2="265" y1="252.7556" y2="242.7556"/><line style="stroke:#181818;stroke-width:0.5;" x1="169" x2="255" y1="252.7556" y2="252.7556"/><line style="stroke:#181818;stroke-width:0.5;" x1="255" x2="255" y1="252.7556" y2="289.2439"/><text fill="#000000" font-family="sans-serif" font-size="14" lengthAdjust="spacing" textLength="56" x="184" y="276.2908">Pegasus</text></g><!--entity cIBC--><g id="elem_cIBC"><polygon fill="#F1F1F1" points="284.5,495.7256,294.5,485.7256,405.5,485.7256,405.5,522.2139,395.5,532.2139,284.5,532.2139,284.5,495.7256" style="stroke:#181818;stroke-width:0.5;"/><line style="stroke:#181818;stroke-width:0.5;" x1="395.5" x2="405.5" y1="495.7256" y2="485.7256"/><line style="stroke:#181818;stroke-width:0.5;" x1="284.5" x2="395.5" y1="495.7256" y2="495.7256"/><line style="stroke:#181818;stroke-width:0.5;" x1="395.5" x2="395.5" y1="495.7256" y2="532.2139"/><text fill="#000000" font-family="sans-serif" font-size="14" lengthAdjust="spacing" textLength="81" x="299.5" y="519.2608">Cosmos IBC</text></g><!--entity bob--><g id="elem_bob"><ellipse cx="345" cy="615.7156" fill="#F1F1F1" rx="8" ry="8" style="stroke:#181818;stroke-width:0.5;"/><path d="M345,623.7156 L345,650.7156 M332,631.7156 L358,631.7156 M345,650.7156 L332,665.7156 M345,650.7156 L358,665.7156 " fill="none" style="stroke:#181818;stroke-width:0.5;"/><text fill="#000000" font-family="sans-serif" font-size="14" lengthAdjust="spacing" textLength="26" x="332" y="680.7508">Bob</text></g><!--entity relayer--><g id="elem_relayer"><ellipse cx="203" cy="479.2256" fill="#F1F1F1" rx="8" ry="8" style="stroke:#181818;stroke-width:0.5;"/><path d="M203,487.2256 L203,514.2256 M190,495.2256 L216,495.2256 M203,514.2256 L190,529.2256 M203,514.2256 L216,529.2256 " fill="none" style="stroke:#181818;stroke-width:0.5;"/><text fill="#000000" font-family="sans-serif" font-size="14" lengthAdjust="spacing" textLength="50" x="178" y="544.2608">Relayer</text></g><!--link pegasus to dIBC--><g id="link_pegasus_dIBC"><path d="M213.22,295.1956 C211.23,310.0556 208.79,328.2356 206.8,343.1156 " fill="none" id="pegasus-dIBC" style="stroke:#181818;stroke-width:1.0;"/><polygon fill="#181818" points="213.96,290.6656,208.812,299.0619,213.3029,295.6223,216.7426,300.1132,213.96,290.6656" style="stroke:#181818;stroke-width:1.0;"/><polygon fill="#181818" points="206.03,347.8556,211.2018,339.4739,206.7011,342.9009,203.2742,338.4002,206.03,347.8556" style="stroke:#181818;stroke-width:1.0;"/></g><!--link dIBC to relayer--><g id="link_dIBC_relayer"><path d="M203,401.9456 C203,420.0756 203,443.9256 203,464.4056 " fill="none" id="dIBC-relayer" style="stroke:#181818;stroke-width:1.0;"/><polygon fill="#181818" points="203,396.9956,199,405.9956,203,401.9956,207,405.9956,203,396.9956" style="stroke:#181818;stroke-width:1.0;"/><polygon fill="#181818" points="203,469.3656,207,460.3656,203,464.3656,199,460.3656,203,469.3656" style="stroke:#181818;stroke-width:1.0;"/></g><!--link relayer to cIBC--><g id="link_relayer_cIBC"><path d="M233.94,508.9756 C248.77,508.9756 263.6,508.9756 278.43,508.9756 " fill="none" id="relayer-cIBC" style="stroke:#181818;stroke-width:1.0;"/><polygon fill="#181818" points="229.24,508.9756,238.24,512.9756,234.24,508.9756,238.24,504.9756,229.24,508.9756" style="stroke:#181818;stroke-width:1.0;"/><polygon fill="#181818" points="283.34,508.9756,274.34,504.9756,278.34,508.9756,274.34,512.9756,283.34,508.9756" style="stroke:#181818;stroke-width:1.0;"/></g><!--link alice to pegasus--><g id="link_alice_pegasus"><path d="M217,182.9856 C217,200.2956 217,220.5156 217,236.5556 " fill="none" id="alice-to-pegasus" style="stroke:#181818;stroke-width:1.0;"/><polygon fill="#181818" points="217,241.2556,221,232.2556,217,236.2556,213,232.2556,217,241.2556" style="stroke:#181818;stroke-width:1.0;"/></g><!--link cIBC to bob--><g id="link_cIBC_bob"><path d="M345,532.4856 C345,551.1656 345,578.2756 345,601.1456 " fill="none" id="cIBC-to-bob" style="stroke:#181818;stroke-width:1.0;"/><polygon fill="#181818" points="345,605.8556,349,596.8556,345,600.8556,341,596.8556,345,605.8556" style="stroke:#181818;stroke-width:1.0;"/></g><!--link gov to pegasus--><g id="link_gov_pegasus"><path d="M139.89,265.9956 C147.53,265.9956 155.17,265.9956 162.81,265.9956 " fill="none" id="gov-pegasus" style="stroke:#181818;stroke-width:1.0;"/><polygon fill="#181818" points="134.93,265.9956,143.93,269.9956,139.93,265.9956,143.93,261.9956,134.93,265.9956" style="stroke:#181818;stroke-width:1.0;"/><polygon fill="#181818" points="167.65,265.9956,158.65,261.9956,162.65,265.9956,158.65,269.9956,167.65,265.9956" style="stroke:#181818;stroke-width:1.0;"/></g><text fill="#888888" font-family="sans-serif" font-size="10" lengthAdjust="spacing" textLength="29" x="198" y="725.3736">v0.0.1</text><!--SRC=[LL11QiCm4Bph5OilFTb9hwKK4WTAJorDFx2MDeweB1b93ZMbV-zQaaCYi1ZlxCxEwE4SunYUDflHe8tJO1hfXWr_exDaOwqqzXu7SIPKv67NEwyb7ESGQGZmFfB7g6qFBK-WdHjnSYvousNRR9j74NKq11_KOvX2QagoS2Yo8dnhEo93kEuynfbdFCc8jZTqqwBeX9E9N_GJTqRtTbYa95_aXL0OiSD0K1MJxHcrhU1N01-KqNccZ9PK0GR01ILA6ZSfg5xTXRn5M_ZUNKIYhLEiUPWj3YpwjcyJhHZSq2LXeiQC4rimFDVrIvxvktNQkZ2uSEyq2nPcNIVNTIN7tdMfthcE5NE2kw2VP70cdvfynZbE-M57qshflkovBBFJz4PGAwwieHOcLvRLWb-9HwxqFm00]--></g></svg>