<svg width="851" height="851" viewBox="0 0 851 851" fill="none" xmlns="http://www.w3.org/2000/svg">
<path d="M425.2 834.2C651.139 834.2 834.3 651.04 834.3 425.1C834.3 199.16 651.139 16 425.2 16C199.26 16 16.0996 199.16 16.0996 425.1C16.0996 651.04 199.26 834.2 425.2 834.2Z" fill="#86E6E9"/>
<path d="M505.696 661C583.181 661 645.901 593.182 643.807 510.355C641.818 430.307 577.945 367.492 502.554 367.492H299.418C299.314 367.492 299.209 367.603 299.209 367.715V660.666C299.209 660.778 299.314 660.889 299.418 660.889H505.696V661Z" fill="black"/>
<path d="M446.629 487.008C528.9 487.008 595.496 419.19 593.272 336.363C591.16 256.315 523.342 193.5 443.294 193.5H298.986C298.875 193.5 298.764 193.611 298.764 193.722V486.674C298.764 486.785 298.875 486.897 298.986 486.897H446.629V487.008Z" fill="black" fill-opacity="0.7"/>
</svg>
