<?xml version="1.0" encoding="UTF-8" standalone="no"?><svg xmlns="http://www.w3.org/2000/svg" xmlns:xlink="http://www.w3.org/1999/xlink" contentStyleType="text/css" height="746px" preserveAspectRatio="none" style="width:1851px;height:746px;background:#FFFFFF;" version="1.1" viewBox="0 0 1851 746" width="1851px" zoomAndPan="magnify"><defs/><g><text fill="#888888" font-family="sans-serif" font-size="10" lengthAdjust="spacing" textLength="176" x="1661.5" y="9.668">Agoric Systems Operating Company.</text><text fill="#000000" font-family="sans-serif" font-size="14" font-weight="bold" lengthAdjust="spacing" textLength="90" x="873.75" y="36.3125">VaultFactory</text><!--cluster Vat--><g id="cluster_Vat"><polygon fill="none" points="944.5,204.7656,954.5,194.7656,1834.5,194.7656,1834.5,700.7656,1824.5,710.7656,944.5,710.7656,944.5,204.7656" style="stroke:#181818;stroke-width:1.0;"/><line style="stroke:#181818;stroke-width:1.0;" x1="1824.5" x2="1834.5" y1="204.7656" y2="194.7656"/><line style="stroke:#181818;stroke-width:1.0;" x1="944.5" x2="1824.5" y1="204.7656" y2="204.7656"/><line style="stroke:#181818;stroke-width:1.0;" x1="1824.5" x2="1824.5" y1="204.7656" y2="710.7656"/><text fill="#000000" font-family="sans-serif" font-size="14" font-weight="bold" lengthAdjust="spacing" textLength="24" x="1373.5" y="221.3008">Vat</text></g><!--cluster VaultFactory--><g id="cluster_VaultFactory"><polygon fill="none" points="968.5,252.7656,978.5,242.7656,1443.5,242.7656,1443.5,442.7656,1433.5,452.7656,968.5,452.7656,968.5,252.7656" style="stroke:#181818;stroke-width:1.0;"/><line style="stroke:#181818;stroke-width:1.0;" x1="1433.5" x2="1443.5" y1="252.7656" y2="242.7656"/><line style="stroke:#181818;stroke-width:1.0;" x1="968.5" x2="1433.5" y1="252.7656" y2="252.7656"/><line style="stroke:#181818;stroke-width:1.0;" x1="1433.5" x2="1433.5" y1="252.7656" y2="452.7656"/><text fill="#000000" font-family="sans-serif" font-size="14" font-weight="bold" lengthAdjust="spacing" textLength="90" x="1157" y="269.3008">VaultFactory</text></g><!--cluster publicAPI--><g id="cluster_publicAPI"><polygon fill="none" points="1226.5,300.7656,1236.5,290.7656,1419.5,290.7656,1419.5,418.7656,1409.5,428.7656,1226.5,428.7656,1226.5,300.7656" style="stroke:#181818;stroke-width:1.0;"/><line style="stroke:#181818;stroke-width:1.0;" x1="1409.5" x2="1419.5" y1="300.7656" y2="290.7656"/><line style="stroke:#181818;stroke-width:1.0;" x1="1226.5" x2="1409.5" y1="300.7656" y2="300.7656"/><line style="stroke:#181818;stroke-width:1.0;" x1="1409.5" x2="1409.5" y1="300.7656" y2="428.7656"/><text fill="#000000" font-family="sans-serif" font-size="14" font-weight="bold" lengthAdjust="spacing" textLength="68" x="1285" y="317.3008">publicAPI</text></g><!--cluster creatorFacet--><g id="cluster_creatorFacet"><polygon fill="none" points="992.5,300.7656,1002.5,290.7656,1202.5,290.7656,1202.5,418.7656,1192.5,428.7656,992.5,428.7656,992.5,300.7656" style="stroke:#181818;stroke-width:1.0;"/><line style="stroke:#181818;stroke-width:1.0;" x1="1192.5" x2="1202.5" y1="300.7656" y2="290.7656"/><line style="stroke:#181818;stroke-width:1.0;" x1="992.5" x2="1192.5" y1="300.7656" y2="300.7656"/><line style="stroke:#181818;stroke-width:1.0;" x1="1192.5" x2="1192.5" y1="300.7656" y2="428.7656"/><text fill="#000000" font-family="sans-serif" font-size="14" font-weight="bold" lengthAdjust="spacing" textLength="87" x="1050" y="317.3008">creatorFacet</text></g><!--cluster Vault--><g id="cluster_Vault"><polygon fill="none" points="976.5,534.7656,986.5,524.7656,1802.5,524.7656,1802.5,668.7656,1792.5,678.7656,976.5,678.7656,976.5,534.7656" style="stroke:#181818;stroke-width:1.0;"/><line style="stroke:#181818;stroke-width:1.0;" x1="1792.5" x2="1802.5" y1="534.7656" y2="524.7656"/><line style="stroke:#181818;stroke-width:1.0;" x1="976.5" x2="1792.5" y1="534.7656" y2="534.7656"/><line style="stroke:#181818;stroke-width:1.0;" x1="1792.5" x2="1792.5" y1="534.7656" y2="678.7656"/><text fill="#000000" font-family="sans-serif" font-size="14" font-weight="bold" lengthAdjust="spacing" textLength="38" x="1366.5" y="551.3008">Vault</text></g><!--entity makeVaultInvitation--><g id="elem_makeVaultInvitation"><ellipse cx="1394.5" cy="383.7656" fill="#F1F1F1" rx="8" ry="8" style="stroke:#181818;stroke-width:0.5;"/><text fill="#000000" font-family="sans-serif" font-size="14" lengthAdjust="spacing" textLength="136" x="1326.5" y="414.3008">makeVaultInvitation</text></g><!--entity getMintIssuer--><g id="elem_getMintIssuer"><ellipse cx="1296.5" cy="383.7656" fill="#F1F1F1" rx="8" ry="8" style="stroke:#181818;stroke-width:0.5;"/><text fill="#000000" font-family="sans-serif" font-size="14" lengthAdjust="spacing" textLength="93" x="1250" y="414.3008">getMintIssuer</text></g><!--entity makeAddTypeInvitation--><g id="elem_makeAddTypeInvitation"><ellipse cx="1097.5" cy="383.7656" fill="#F1F1F1" rx="8" ry="8" style="stroke:#181818;stroke-width:0.5;"/><text fill="#000000" font-family="sans-serif" font-size="14" lengthAdjust="spacing" textLength="162" x="1016.5" y="414.3008">makeAddTypeInvitation</text></g><!--entity makeCloseInvitation--><g id="elem_makeCloseInvitation"><ellipse cx="1077.5" cy="625.7656" fill="#F1F1F1" rx="8" ry="8" style="stroke:#181818;stroke-width:0.5;"/><text fill="#000000" font-family="sans-serif" font-size="14" lengthAdjust="spacing" textLength="139" x="1008" y="656.3008">makeCloseInvitation</text></g><!--entity makeAdjustBalancesInvitation--><g id="elem_makeAdjustBalancesInvitation"><ellipse cx="1649.5" cy="625.7656" fill="#F1F1F1" rx="8" ry="8" style="stroke:#181818;stroke-width:0.5;"/><text fill="#000000" font-family="sans-serif" font-size="14" lengthAdjust="spacing" textLength="204" x="1547.5" y="656.3008">makeAdjustBalancesInvitation</text></g><!--entity getCollateralAmount--><g id="elem_getCollateralAmount"><ellipse cx="1425.5" cy="625.7656" fill="#F1F1F1" rx="8" ry="8" style="stroke:#181818;stroke-width:0.5;"/><text fill="#000000" font-family="sans-serif" font-size="14" lengthAdjust="spacing" textLength="143" x="1354" y="656.3008">getCollateralAmount</text></g><!--entity getCurrentDebt--><g id="elem_getCurrentDebt"><ellipse cx="1250.5" cy="625.7656" fill="#F1F1F1" rx="8" ry="8" style="stroke:#181818;stroke-width:0.5;"/><text fill="#000000" font-family="sans-serif" font-size="14" lengthAdjust="spacing" textLength="107" x="1197" y="656.3008">getCurrentDebt</text></g><!--entity vfc--><g id="elem_vfc"><ellipse cx="1097.5" cy="64.2656" fill="#F1F1F1" rx="8" ry="8" style="stroke:#181818;stroke-width:0.5;"/><path d="M1097.5,72.2656 L1097.5,99.2656 M1084.5,80.2656 L1110.5,80.2656 M1097.5,99.2656 L1084.5,114.2656 M1097.5,99.2656 L1110.5,114.2656 " fill="none" style="stroke:#181818;stroke-width:0.5;"/><text fill="#000000" font-family="sans-serif" font-size="14" lengthAdjust="spacing" textLength="250" x="972.5" y="129.3008">VaultFactoryCreator aka Governance</text></g><!--entity Borrower--><g id="elem_Borrower"><ellipse cx="417.5" cy="354.2656" fill="#F1F1F1" rx="8" ry="8" style="stroke:#181818;stroke-width:0.5;"/><path d="M417.5,362.2656 L417.5,389.2656 M404.5,370.2656 L430.5,370.2656 M417.5,389.2656 L404.5,404.2656 M417.5,389.2656 L430.5,404.2656 " fill="none" style="stroke:#181818;stroke-width:0.5;"/><text fill="#000000" font-family="sans-serif" font-size="14" lengthAdjust="spacing" textLength="63" x="386" y="419.3008">Borrower</text></g><!--entity AdjustBalancesInvitation--><g id="elem_AdjustBalancesInvitation"><polygon fill="#F1F1F1" points="721,370.7656,731,360.7656,928,360.7656,928,397.2539,918,407.2539,721,407.2539,721,370.7656" style="stroke:#181818;stroke-width:0.5;"/><line style="stroke:#181818;stroke-width:0.5;" x1="918" x2="928" y1="370.7656" y2="360.7656"/><line style="stroke:#181818;stroke-width:0.5;" x1="721" x2="918" y1="370.7656" y2="370.7656"/><line style="stroke:#181818;stroke-width:0.5;" x1="918" x2="918" y1="370.7656" y2="407.2539"/><text fill="#000000" font-family="sans-serif" font-size="14" lengthAdjust="spacing" textLength="167" x="736" y="394.3008">AdjustBalancesInvitation</text></g><!--entity CloseVaultInvitation--><g id="elem_CloseVaultInvitation"><polygon fill="#F1F1F1" points="16,370.7656,26,360.7656,193,360.7656,193,397.2539,183,407.2539,16,407.2539,16,370.7656" style="stroke:#181818;stroke-width:0.5;"/><line style="stroke:#181818;stroke-width:0.5;" x1="183" x2="193" y1="370.7656" y2="360.7656"/><line style="stroke:#181818;stroke-width:0.5;" x1="16" x2="183" y1="370.7656" y2="370.7656"/><line style="stroke:#181818;stroke-width:0.5;" x1="183" x2="183" y1="370.7656" y2="407.2539"/><text fill="#000000" font-family="sans-serif" font-size="14" lengthAdjust="spacing" textLength="137" x="31" y="394.3008">CloseVaultInvitation</text></g><!--entity getPayout--><g id="elem_getPayout"><ellipse cx="505.5" cy="64.2656" fill="#F1F1F1" rx="8" ry="8" style="stroke:#181818;stroke-width:0.5;"/><path d="M505.5,72.2656 L505.5,99.2656 M492.5,80.2656 L518.5,80.2656 M505.5,99.2656 L492.5,114.2656 M505.5,99.2656 L518.5,114.2656 " fill="none" style="stroke:#181818;stroke-width:0.5;"/><text fill="#000000" font-family="sans-serif" font-size="14" lengthAdjust="spacing" textLength="68" x="471.5" y="129.3008">getPayout</text></g><!--entity getPayouts--><g id="elem_getPayouts"><ellipse cx="329.5" cy="64.2656" fill="#F1F1F1" rx="8" ry="8" style="stroke:#181818;stroke-width:0.5;"/><path d="M329.5,72.2656 L329.5,99.2656 M316.5,80.2656 L342.5,80.2656 M329.5,99.2656 L316.5,114.2656 M329.5,99.2656 L342.5,114.2656 " fill="none" style="stroke:#181818;stroke-width:0.5;"/><text fill="#000000" font-family="sans-serif" font-size="14" lengthAdjust="spacing" textLength="75" x="292" y="129.3008">getPayouts</text></g><!--reverse link CloseVaultInvitation to makeCloseInvitation--><g id="link_CloseVaultInvitation_makeCloseInvitation"><path d="M184.42,408.9656 C236.62,424.4756 306.38,444.6556 368.5,460.7656 C654.05,534.8356 1008.54,610.2256 1068.65,622.9056 " fill="none" id="CloseVaultInvitation-backto-makeCloseInvitation" style="stroke:#181818;stroke-width:1.0;"/><polygon fill="#181818" points="179.91,407.6256,187.4074,414.0123,184.705,409.0427,189.6746,406.3403,179.91,407.6256" style="stroke:#181818;stroke-width:1.0;"/></g><!--reverse link AdjustBalancesInvitation to makeAdjustBalancesInvitation--><g id="link_AdjustBalancesInvitation_makeAdjustBalancesInvitation"><path d="M868.65,410.2056 C901.62,427.8256 948.41,449.9756 992.5,460.7656 C1055.19,476.1056 1073.16,463.6556 1137.5,468.7656 C1308.99,482.3956 1365.55,438.3256 1522.5,508.7656 C1579.44,534.3156 1628.06,595.4656 1643.99,617.0556 " fill="none" id="AdjustBalancesInvitation-backto-makeAdjustBalancesInvitation" style="stroke:#181818;stroke-width:1.0;"/><polygon fill="#181818" points="864.4,407.9156,870.4248,415.7067,868.8014,410.2878,874.2204,408.6644,864.4,407.9156" style="stroke:#181818;stroke-width:1.0;"/></g><!--link Borrower to makeVaultInvitation--><g id="link_Borrower_makeVaultInvitation"><path d="M449.24,357.5656 C499.47,318.0056 602,244.7256 703.5,217.3456 C846.18,178.8556 1256.23,121.2556 1368.5,217.3456 C1412.65,255.1356 1403.92,334.5556 1397.81,368.1856 " fill="none" id="Borrower-to-makeVaultInvitation" style="stroke:#181818;stroke-width:1.0;"/><polygon fill="#181818" points="1396.92,372.7956,1402.5485,364.7136,1397.8648,367.8857,1394.6926,363.2019,1396.92,372.7956" style="stroke:#181818;stroke-width:1.0;"/><text fill="#000000" font-family="sans-serif" font-size="13" lengthAdjust="spacing" textLength="208" x="1148.5" y="175.334">open vault and transfer collateral</text></g><!--link makeVaultInvitation to Vault--><g id="link_makeVaultInvitation_Vault"><path d="M1403.78,384.5656 C1451.66,384.0956 1672.44,388.6756 1775.5,508.7656 C1777.5931,511.2044 1779.5006,513.7821 1781.2374,516.4725 C1782.1058,517.8177 1782.9315,519.191 1783.7164,520.5893 C1784.1089,521.2884 1784.4911,521.9937 1784.8634,522.7049 C1785.0496,523.0604 1785.2332,523.4174 1785.4144,523.7759 C1785.505,523.9551 1785.595,524.1346 1785.6843,524.3145 " fill="none" id="makeVaultInvitation-to-Vault" style="stroke:#181818;stroke-width:1.0;"/><polygon fill="#181818" points="1785.6843,524.3145,1785.2629,514.4747,1783.46,519.8366,1778.0981,518.0337,1785.6843,524.3145" style="stroke:#181818;stroke-width:1.0;"/></g><!--reverse link getPayout to Borrower--><g id="link_getPayout_Borrower"><path d="M492.25,138.1256 C475.01,194.5456 445.17,292.2056 428.89,345.4756 " fill="none" id="getPayout-backto-Borrower" style="stroke:#181818;stroke-width:1.0;"/><polygon fill="#181818" points="493.64,133.5656,487.1717,140.9926,492.1706,138.3448,494.8184,143.3437,493.64,133.5656" style="stroke:#181818;stroke-width:1.0;"/><text fill="#000000" font-family="sans-serif" font-size="13" lengthAdjust="spacing" textLength="134" x="485.5" y="175.334">retrieve any proceeds</text></g><!--reverse link getPayouts to Borrower--><g id="link_getPayouts_Borrower"><path d="M331.97,138.2656 C333.3,151.4056 335.35,165.7856 338.5,178.7656 C353.1,238.9256 381.14,305.1756 399.58,345.3756 " fill="none" id="getPayouts-backto-Borrower" style="stroke:#181818;stroke-width:1.0;"/><polygon fill="#181818" points="331.51,133.4356,328.375,142.7722,331.9807,138.4134,336.3395,142.0191,331.51,133.4356" style="stroke:#181818;stroke-width:1.0;"/><text fill="#000000" font-family="sans-serif" font-size="13" lengthAdjust="spacing" textLength="134" x="339.5" y="175.334">retrieve any proceeds</text></g><!--link Borrower to AdjustBalancesInvitation--><g id="link_Borrower_AdjustBalancesInvitation"><path d="M449.44,383.7656 C505.8,383.7656 625.38,383.7656 714.45,383.7656 " fill="none" id="Borrower-to-AdjustBalancesInvitation" style="stroke:#181818;stroke-width:1.0;"/><polygon fill="#181818" points="719.3,383.7656,710.3,379.7656,714.3,383.7656,710.3,387.7656,719.3,383.7656" style="stroke:#181818;stroke-width:1.0;"/><text fill="#000000" font-family="sans-serif" font-size="13" lengthAdjust="spacing" textLength="169" x="498.5" y="362.334">add or remove collateral or</text><text fill="#000000" font-family="sans-serif" font-size="13" lengthAdjust="spacing" textLength="235" x="467.5" y="377.6445">increase or decrease the loan balance</text></g><!--reverse link CloseVaultInvitation to Borrower--><g id="link_CloseVaultInvitation_Borrower"><path d="M199.83,383.7656 C263.18,383.7656 342.41,383.7656 385.67,383.7656 " fill="none" id="CloseVaultInvitation-backto-Borrower" style="stroke:#181818;stroke-width:1.0;"/><polygon fill="#181818" points="194.87,383.7656,203.87,387.7656,199.87,383.7656,203.87,379.7656,194.87,383.7656" style="stroke:#181818;stroke-width:1.0;"/><text fill="#000000" font-family="sans-serif" font-size="13" lengthAdjust="spacing" textLength="152" x="211.5" y="362.334">close loan and withdraw</text><text fill="#000000" font-family="sans-serif" font-size="13" lengthAdjust="spacing" textLength="151" x="214" y="377.6445">any remaining collateral</text></g><!--link vfc to makeAddTypeInvitation--><g id="link_vfc_makeAddTypeInvitation"><path d="M1097.5,132.1256 C1097.5,196.7156 1097.5,326.4256 1097.5,368.9256 " fill="none" id="vfc-to-makeAddTypeInvitation" style="stroke:#181818;stroke-width:1.0;"/><polygon fill="#181818" points="1097.5,373.6756,1101.5,364.6756,1097.5,368.6756,1093.5,364.6756,1097.5,373.6756" style="stroke:#181818;stroke-width:1.0;"/></g><!--link Borrower to getCurrentDebt--><g id="link_Borrower_getCurrentDebt"><path d="M449.27,396.5656 C518.11,421.4656 686.66,478.9056 833.5,500.7656 C852.13,503.5356 1155.98,499.7156 1172.5,508.7656 C1213.33,531.1356 1236.77,585.1256 1245.95,610.7756 " fill="none" id="Borrower-to-getCurrentDebt" style="stroke:#181818;stroke-width:1.0;"/><polygon fill="#181818" points="1247.58,615.5056,1248.4312,605.6936,1245.9518,610.7782,1240.8673,608.2987,1247.58,615.5056" style="stroke:#181818;stroke-width:1.0;"/><text fill="#000000" font-family="sans-serif" font-size="13" lengthAdjust="spacing" textLength="122" x="834.5" y="489.834">how much do I owe</text></g><!--link Borrower to getCollateralAmount--><g id="link_Borrower_getCollateralAmount"><path d="M449.17,395.7456 C501.4,413.2556 609.2,446.9656 703.5,460.7656 C731.88,464.9156 934.65,458.6856 961.5,468.7656 C982.49,476.6456 979.48,492.9556 1000.5,500.7656 C1034.78,513.4956 1296.6,492.7956 1329.5,508.7656 C1375,530.8556 1406.56,585.8156 1419.26,611.3456 " fill="none" id="Borrower-to-getCollateralAmount" style="stroke:#181818;stroke-width:1.0;"/><polygon fill="#181818" points="1421.29,615.5256,1420.9559,605.6824,1419.1055,611.0281,1413.7598,609.1777,1421.29,615.5256" style="stroke:#181818;stroke-width:1.0;"/><text fill="#000000" font-family="sans-serif" font-size="13" lengthAdjust="spacing" textLength="97" x="1014.5" y="482.334">how much did I</text><text fill="#000000" font-family="sans-serif" font-size="13" lengthAdjust="spacing" textLength="127" x="1001.5" y="497.6445">deposit as collateral</text></g><text fill="#888888" font-family="sans-serif" font-size="10" lengthAdjust="spacing" textLength="29" x="904.25" y="736.4336">v0.0.1</text><!--SRC=[XLJ1Rjim3BthAmZV4tJN70gu6JRaCAn0YvvwOIGcKIDBXaGxCuRy-wWuQOJ0MNqmRFBnFUg9qexGK8Hw6wBLy38afYR1xvOYilLRM8QcHJ_CrIO45c3_C7-OVrDisH6yOUVu1seESL0gxQrlCM83Meg29yylF0WiacRqMqS5nD0c5x_I7wwTtVf6qA3bHL4fTQA4gkHVHi8Sn3t2pz1JzEWrLO09-es-b3o56CCXS_XW26hpqIL-GfUnQULxoxAiuCTijNGXqKdacghEfIBE5VnL8CyfK3PpZd_cghPREwlhvrLLfFAZRTHYGOFxMw4fs9Rub_MyIgcJDLoInninFLeXlH3_HwysvdLeQK9n93nUrpOwNN8LF2UN9bWcSZ3hPeymPQkQRF3ExfGAzq2Zr9SKLsENmJcKyK9NDw7pF0NfOfGH_4vhFZjqL9U90b6RsCK5X9Oyz3aAw0rmH9ysWjUVUcgY3cP624_1GY8lIVfunY5ql923mz5IJq8yG1k39ZBf7ZnzZR_lrmBG69035AcHmrKqduFltleyT8dodw7pD-y8N40Fwv6lK79tnc01EaV7icpNmVBEH3o8HcvQvD7wVF4Kzidv7ksQdkghgXdzABPn0RjmWARJEp01LY2u2VpDP9H5raZLkpVKXcGvtpP5O_y0]--></g></svg>