<?xml version="1.0" encoding="us-ascii" standalone="no"?><svg xmlns="http://www.w3.org/2000/svg" xmlns:xlink="http://www.w3.org/1999/xlink" contentStyleType="text/css" height="937px" preserveAspectRatio="none" style="width:1897px;height:937px;background:#FFFFFF;" version="1.1" viewBox="0 0 1897 937" width="1897px" zoomAndPan="magnify"><defs/><g><text fill="#888888" font-family="sans-serif" font-size="10" lengthAdjust="spacing" textLength="176" x="1707.5" y="9.668">Agoric Systems Operating Company.</text><text fill="#000000" font-family="sans-serif" font-size="14" font-weight="bold" lengthAdjust="spacing" textLength="90" x="896.75" y="36.3125">VaultFactory</text><!--cluster Vat--><g id="cluster_Vat"><polygon fill="none" points="112.5,373.7456,122.5,363.7456,1880.5,363.7456,1880.5,891.7456,1870.5,901.7456,112.5,901.7456,112.5,373.7456" style="stroke:#181818;stroke-width:1.0;"/><line style="stroke:#181818;stroke-width:1.0;" x1="1870.5" x2="1880.5" y1="373.7456" y2="363.7456"/><line style="stroke:#181818;stroke-width:1.0;" x1="112.5" x2="1870.5" y1="373.7456" y2="373.7456"/><line style="stroke:#181818;stroke-width:1.0;" x1="1870.5" x2="1870.5" y1="373.7456" y2="901.7456"/><text fill="#000000" font-family="sans-serif" font-size="14" font-weight="bold" lengthAdjust="spacing" textLength="24" x="980.5" y="390.2808">Vat</text></g><!--cluster VaultFactory--><g id="cluster_VaultFactory"><polygon fill="none" points="1002.5,421.7456,1012.5,411.7456,1856.5,411.7456,1856.5,867.7456,1846.5,877.7456,1002.5,877.7456,1002.5,421.7456" style="stroke:#181818;stroke-width:1.0;"/><line style="stroke:#181818;stroke-width:1.0;" x1="1846.5" x2="1856.5" y1="421.7456" y2="411.7456"/><line style="stroke:#181818;stroke-width:1.0;" x1="1002.5" x2="1846.5" y1="421.7456" y2="421.7456"/><line style="stroke:#181818;stroke-width:1.0;" x1="1846.5" x2="1846.5" y1="421.7456" y2="877.7456"/><text fill="#000000" font-family="sans-serif" font-size="14" font-weight="bold" lengthAdjust="spacing" textLength="90" x="1380.5" y="438.2808">VaultFactory</text></g><!--cluster publicAPI--><g id="cluster_publicAPI"><polygon fill="none" points="1260.5,469.7456,1270.5,459.7456,1832.5,459.7456,1832.5,843.7456,1822.5,853.7456,1260.5,853.7456,1260.5,469.7456" style="stroke:#181818;stroke-width:1.0;"/><line style="stroke:#181818;stroke-width:1.0;" x1="1822.5" x2="1832.5" y1="469.7456" y2="459.7456"/><line style="stroke:#181818;stroke-width:1.0;" x1="1260.5" x2="1822.5" y1="469.7456" y2="469.7456"/><line style="stroke:#181818;stroke-width:1.0;" x1="1822.5" x2="1822.5" y1="469.7456" y2="853.7456"/><text fill="#000000" font-family="sans-serif" font-size="14" font-weight="bold" lengthAdjust="spacing" textLength="68" x="1508.5" y="486.2808">publicAPI</text></g><!--cluster creatorFacet--><g id="cluster_creatorFacet"><polygon fill="none" points="1026.5,469.7456,1036.5,459.7456,1236.5,459.7456,1236.5,587.7456,1226.5,597.7456,1026.5,597.7456,1026.5,469.7456" style="stroke:#181818;stroke-width:1.0;"/><line style="stroke:#181818;stroke-width:1.0;" x1="1226.5" x2="1236.5" y1="469.7456" y2="459.7456"/><line style="stroke:#181818;stroke-width:1.0;" x1="1026.5" x2="1226.5" y1="469.7456" y2="469.7456"/><line style="stroke:#181818;stroke-width:1.0;" x1="1226.5" x2="1226.5" y1="469.7456" y2="597.7456"/><text fill="#000000" font-family="sans-serif" font-size="14" font-weight="bold" lengthAdjust="spacing" textLength="87" x="1084" y="486.2808">creatorFacet</text></g><!--cluster Vault--><g id="cluster_Vault"><polygon fill="none" points="144.5,461.7456,154.5,451.7456,970.5,451.7456,970.5,595.7456,960.5,605.7456,144.5,605.7456,144.5,461.7456" style="stroke:#181818;stroke-width:1.0;"/><line style="stroke:#181818;stroke-width:1.0;" x1="960.5" x2="970.5" y1="461.7456" y2="451.7456"/><line style="stroke:#181818;stroke-width:1.0;" x1="144.5" x2="960.5" y1="461.7456" y2="461.7456"/><line style="stroke:#181818;stroke-width:1.0;" x1="960.5" x2="960.5" y1="461.7456" y2="605.7456"/><text fill="#000000" font-family="sans-serif" font-size="14" font-weight="bold" lengthAdjust="spacing" textLength="38" x="534.5" y="478.2808">Vault</text></g><!--entity getCollateralManager--><g id="elem_getCollateralManager"><ellipse cx="1358.5" cy="552.7456" fill="#F1F1F1" rx="8" ry="8" style="stroke:#181818;stroke-width:0.5;"/><text fill="#000000" font-family="sans-serif" font-size="14" lengthAdjust="spacing" textLength="148" x="1284.5" y="583.2808">getCollateralManager</text></g><!--entity getDebtIssuer--><g id="elem_getDebtIssuer"><ellipse cx="1530.5" cy="552.7456" fill="#F1F1F1" rx="8" ry="8" style="stroke:#181818;stroke-width:0.5;"/><text fill="#000000" font-family="sans-serif" font-size="14" lengthAdjust="spacing" textLength="95" x="1483" y="583.2808">getDebtIssuer</text></g><!--entity getSubscription--><g id="elem_getSubscription"><ellipse cx="1682.5" cy="552.7456" fill="#F1F1F1" rx="8" ry="8" style="stroke:#181818;stroke-width:0.5;"/><text fill="#000000" font-family="sans-serif" font-size="14" lengthAdjust="spacing" textLength="108" x="1628.5" y="583.2808">getSubscription</text></g><!--entity getPublicTopics--><g id="elem_getPublicTopics"><ellipse cx="1338.5" cy="689.7456" fill="#F1F1F1" rx="8" ry="8" style="stroke:#181818;stroke-width:0.5;"/><text fill="#000000" font-family="sans-serif" font-size="14" lengthAdjust="spacing" textLength="108" x="1284.5" y="720.2808">getPublicTopics</text></g><!--entity getElectorateSubscription--><g id="elem_getElectorateSubscription"><ellipse cx="1531.5" cy="689.7456" fill="#F1F1F1" rx="8" ry="8" style="stroke:#181818;stroke-width:0.5;"/><text fill="#000000" font-family="sans-serif" font-size="14" lengthAdjust="spacing" textLength="176" x="1443.5" y="720.2808">getElectorateSubscription</text></g><!--entity getGovernedParams--><g id="elem_getGovernedParams"><ellipse cx="1739.5" cy="689.7456" fill="#F1F1F1" rx="8" ry="8" style="stroke:#181818;stroke-width:0.5;"/><text fill="#000000" font-family="sans-serif" font-size="14" lengthAdjust="spacing" textLength="138" x="1670.5" y="720.2808">getGovernedParams</text></g><!--entity getInvitationAmount--><g id="elem_getInvitationAmount"><ellipse cx="1354.5" cy="808.7456" fill="#F1F1F1" rx="8" ry="8" style="stroke:#181818;stroke-width:0.5;"/><text fill="#000000" font-family="sans-serif" font-size="14" lengthAdjust="spacing" textLength="141" x="1284" y="839.2808">getInvitationAmount</text></g><!--entity makeAddTypeInvitation--><g id="elem_makeAddTypeInvitation"><ellipse cx="1131.5" cy="552.7456" fill="#F1F1F1" rx="8" ry="8" style="stroke:#181818;stroke-width:0.5;"/><text fill="#000000" font-family="sans-serif" font-size="14" lengthAdjust="spacing" textLength="162" x="1050.5" y="583.2808">makeAddTypeInvitation</text></g><!--entity makeCloseInvitation--><g id="elem_makeCloseInvitation"><ellipse cx="245.5" cy="552.7456" fill="#F1F1F1" rx="8" ry="8" style="stroke:#181818;stroke-width:0.5;"/><text fill="#000000" font-family="sans-serif" font-size="14" lengthAdjust="spacing" textLength="139" x="176" y="583.2808">makeCloseInvitation</text></g><!--entity makeAdjustBalancesInvitation--><g id="elem_makeAdjustBalancesInvitation"><ellipse cx="817.5" cy="552.7456" fill="#F1F1F1" rx="8" ry="8" style="stroke:#181818;stroke-width:0.5;"/><text fill="#000000" font-family="sans-serif" font-size="14" lengthAdjust="spacing" textLength="204" x="715.5" y="583.2808">makeAdjustBalancesInvitation</text></g><!--entity getCollateralAmount--><g id="elem_getCollateralAmount"><ellipse cx="593.5" cy="552.7456" fill="#F1F1F1" rx="8" ry="8" style="stroke:#181818;stroke-width:0.5;"/><text fill="#000000" font-family="sans-serif" font-size="14" lengthAdjust="spacing" textLength="143" x="522" y="583.2808">getCollateralAmount</text></g><!--entity getCurrentDebt--><g id="elem_getCurrentDebt"><ellipse cx="418.5" cy="552.7456" fill="#F1F1F1" rx="8" ry="8" style="stroke:#181818;stroke-width:0.5;"/><text fill="#000000" font-family="sans-serif" font-size="14" lengthAdjust="spacing" textLength="107" x="365" y="583.2808">getCurrentDebt</text></g><!--entity vfc--><g id="elem_vfc"><ellipse cx="1258.5" cy="217.7556" fill="#F1F1F1" rx="8" ry="8" style="stroke:#181818;stroke-width:0.5;"/><path d="M1258.5,225.7556 L1258.5,252.7556 M1245.5,233.7556 L1271.5,233.7556 M1258.5,252.7556 L1245.5,267.7556 M1258.5,252.7556 L1271.5,267.7556 " fill="none" style="stroke:#181818;stroke-width:0.5;"/><text fill="#000000" font-family="sans-serif" font-size="14" lengthAdjust="spacing" textLength="250" x="1133.5" y="282.7908">VaultFactoryCreator aka Governance</text></g><!--entity Borrower--><g id="elem_Borrower"><ellipse cx="416.5" cy="217.7556" fill="#F1F1F1" rx="8" ry="8" style="stroke:#181818;stroke-width:0.5;"/><path d="M416.5,225.7556 L416.5,252.7556 M403.5,233.7556 L429.5,233.7556 M416.5,252.7556 L403.5,267.7556 M416.5,252.7556 L429.5,267.7556 " fill="none" style="stroke:#181818;stroke-width:0.5;"/><text fill="#000000" font-family="sans-serif" font-size="14" lengthAdjust="spacing" textLength="63" x="385" y="282.7908">Borrower</text></g><!--entity AdjustBalancesInvitation--><g id="elem_AdjustBalancesInvitation"><polygon fill="#F1F1F1" points="720,234.2556,730,224.2556,927,224.2556,927,260.7439,917,270.7439,720,270.7439,720,234.2556" style="stroke:#181818;stroke-width:0.5;"/><line style="stroke:#181818;stroke-width:0.5;" x1="917" x2="927" y1="234.2556" y2="224.2556"/><line style="stroke:#181818;stroke-width:0.5;" x1="720" x2="917" y1="234.2556" y2="234.2556"/><line style="stroke:#181818;stroke-width:0.5;" x1="917" x2="917" y1="234.2556" y2="270.7439"/><text fill="#000000" font-family="sans-serif" font-size="14" lengthAdjust="spacing" textLength="167" x="735" y="257.7908">AdjustBalancesInvitation</text></g><!--entity CloseVaultInvitation--><g id="elem_CloseVaultInvitation"><polygon fill="#F1F1F1" points="16,234.2556,26,224.2556,193,224.2556,193,260.7439,183,270.7439,16,270.7439,16,234.2556" style="stroke:#181818;stroke-width:0.5;"/><line style="stroke:#181818;stroke-width:0.5;" x1="183" x2="193" y1="234.2556" y2="224.2556"/><line style="stroke:#181818;stroke-width:0.5;" x1="16" x2="183" y1="234.2556" y2="234.2556"/><line style="stroke:#181818;stroke-width:0.5;" x1="183" x2="183" y1="234.2556" y2="270.7439"/><text fill="#000000" font-family="sans-serif" font-size="14" lengthAdjust="spacing" textLength="137" x="31" y="257.7908">CloseVaultInvitation</text></g><!--entity makeVaultInvitation--><g id="elem_makeVaultInvitation"><ellipse cx="1030.5" cy="217.7556" fill="#F1F1F1" rx="8" ry="8" style="stroke:#181818;stroke-width:0.5;"/><path d="M1030.5,225.7556 L1030.5,252.7556 M1017.5,233.7556 L1043.5,233.7556 M1030.5,252.7556 L1017.5,267.7556 M1030.5,252.7556 L1043.5,267.7556 " fill="none" style="stroke:#181818;stroke-width:0.5;"/><text fill="#000000" font-family="sans-serif" font-size="14" lengthAdjust="spacing" textLength="136" x="962.5" y="282.7908">makeVaultInvitation</text></g><!--entity getPayout--><g id="elem_getPayout"><ellipse cx="465.5" cy="64.2656" fill="#F1F1F1" rx="8" ry="8" style="stroke:#181818;stroke-width:0.5;"/><path d="M465.5,72.2656 L465.5,99.2656 M452.5,80.2656 L478.5,80.2656 M465.5,99.2656 L452.5,114.2656 M465.5,99.2656 L478.5,114.2656 " fill="none" style="stroke:#181818;stroke-width:0.5;"/><text fill="#000000" font-family="sans-serif" font-size="14" lengthAdjust="spacing" textLength="68" x="431.5" y="129.3008">getPayout</text></g><!--entity getPayouts--><g id="elem_getPayouts"><ellipse cx="289.5" cy="64.2656" fill="#F1F1F1" rx="8" ry="8" style="stroke:#181818;stroke-width:0.5;"/><path d="M289.5,72.2656 L289.5,99.2656 M276.5,80.2656 L302.5,80.2656 M289.5,99.2656 L276.5,114.2656 M289.5,99.2656 L302.5,114.2656 " fill="none" style="stroke:#181818;stroke-width:0.5;"/><text fill="#000000" font-family="sans-serif" font-size="14" lengthAdjust="spacing" textLength="75" x="252" y="129.3008">getPayouts</text></g><!--reverse link CloseVaultInvitation to makeCloseInvitation--><g id="link_CloseVaultInvitation_makeCloseInvitation"><path d="M117.34,276.1256 C148.01,342.0756 224.26,506.0656 241.84,543.8856 " fill="none" id="CloseVaultInvitation-backto-makeCloseInvitation" style="stroke:#181818;stroke-width:1.0;"/><polygon fill="#181818" points="114.87,271.7956,115.0529,281.6428,116.9852,276.3262,122.3018,278.2584,114.87,271.7956" style="stroke:#181818;stroke-width:1.0;"/></g><!--reverse link AdjustBalancesInvitation to makeAdjustBalancesInvitation--><g id="link_AdjustBalancesInvitation_makeAdjustBalancesInvitation"><path d="M822.95,276.5256 C821.64,342.7356 818.4,506.1456 817.66,543.8856 " fill="none" id="AdjustBalancesInvitation-backto-makeAdjustBalancesInvitation" style="stroke:#181818;stroke-width:1.0;"/><polygon fill="#181818" points="823.06,271.7956,818.8808,280.7138,822.96,276.7946,826.8792,280.8738,823.06,271.7956" style="stroke:#181818;stroke-width:1.0;"/></g><!--link Borrower to makeVaultInvitation--><g id="link_Borrower_makeVaultInvitation"><path d="M448.29,236.7156 C500.7,219.5656 608.9,186.8056 703.5,175.0456 C749.81,169.2956 868.62,162.2756 913.5,175.0456 C935.74,181.3756 957.89,193.2756 976.84,205.6356 " fill="none" id="Borrower-to-makeVaultInvitation" style="stroke:#181818;stroke-width:1.0;"/><polygon fill="#181818" points="980.59,208.7856,975.3072,200.4735,976.4254,206.0187,970.8801,207.1369,980.59,208.7856" style="stroke:#181818;stroke-width:1.0;"/><text fill="#000000" font-family="sans-serif" font-size="13" lengthAdjust="spacing" textLength="208" x="704.5" y="175.824">open vault and transfer collateral</text></g><!--link makeVaultInvitation to Vault--><g id="link_makeVaultInvitation_Vault"><path d="M1022.09,285.9856 C1013.135,325.9206 998.56,390.9256 986.0663,446.6481 C982.9428,460.5788 979.9495,473.9292 977.2065,486.1628 C975.835,492.2796 974.5262,498.1171 973.2949,503.6083 C972.6793,506.3539 972.0831,509.013 971.5082,511.577 C971.2207,512.8591 970.9386,514.1174 970.662,515.3509 " fill="none" id="makeVaultInvitation-to-Vault" style="stroke:#181818;stroke-width:1.0;"/><polygon fill="#181818" points="970.662,515.3509,976.5342,507.4441,971.756,510.472,968.728,505.6938,970.662,515.3509" style="stroke:#181818;stroke-width:1.0;"/></g><!--reverse link getPayout to Borrower--><g id="link_getPayout_Borrower"><path d="M451.58,138.0356 C444.35,160.3956 435.6,187.4556 428.64,208.9656 " fill="none" id="getPayout-backto-Borrower" style="stroke:#181818;stroke-width:1.0;"/><polygon fill="#181818" points="453.39,133.4556,446.8086,140.7826,451.8475,138.2117,454.4183,143.2506,453.39,133.4556" style="stroke:#181818;stroke-width:1.0;"/><text fill="#000000" font-family="sans-serif" font-size="13" lengthAdjust="spacing" textLength="134" x="443.5" y="175.824">retrieve any proceeds</text></g><!--reverse link getPayouts to Borrower--><g id="link_getPayouts_Borrower"><path d="M285.35,138.6056 C285.98,152.5156 288.86,167.3756 296.5,179.2556 C316.52,210.3956 356.29,228.4756 384.55,237.8956 " fill="none" id="getPayouts-backto-Borrower" style="stroke:#181818;stroke-width:1.0;"/><polygon fill="#181818" points="285.21,133.7156,281.4427,142.8155,285.3385,138.714,289.44,142.6098,285.21,133.7156" style="stroke:#181818;stroke-width:1.0;"/><text fill="#000000" font-family="sans-serif" font-size="13" lengthAdjust="spacing" textLength="134" x="297.5" y="175.824">retrieve any proceeds</text></g><!--link Borrower to AdjustBalancesInvitation--><g id="link_Borrower_AdjustBalancesInvitation"><path d="M448.44,247.5056 C504.91,247.5056 624.86,247.5056 713.98,247.5056 " fill="none" id="Borrower-to-AdjustBalancesInvitation" style="stroke:#181818;stroke-width:1.0;"/><polygon fill="#181818" points="718.81,247.5056,709.81,243.5056,713.81,247.5056,709.81,251.5056,718.81,247.5056" style="stroke:#181818;stroke-width:1.0;"/><text fill="#000000" font-family="sans-serif" font-size="13" lengthAdjust="spacing" textLength="169" x="497.5" y="226.074">add or remove collateral or</text><text fill="#000000" font-family="sans-serif" font-size="13" lengthAdjust="spacing" textLength="235" x="466.5" y="241.3845">increase or decrease the loan balance</text></g><!--reverse link CloseVaultInvitation to Borrower--><g id="link_CloseVaultInvitation_Borrower"><path d="M199.17,247.5056 C262.43,247.5056 341.68,247.5056 384.86,247.5056 " fill="none" id="CloseVaultInvitation-backto-Borrower" style="stroke:#181818;stroke-width:1.0;"/><polygon fill="#181818" points="194.49,247.5056,203.49,251.5056,199.49,247.5056,203.49,243.5056,194.49,247.5056" style="stroke:#181818;stroke-width:1.0;"/><text fill="#000000" font-family="sans-serif" font-size="13" lengthAdjust="spacing" textLength="152" x="211" y="226.074">close loan and withdraw</text><text fill="#000000" font-family="sans-serif" font-size="13" lengthAdjust="spacing" textLength="151" x="213.5" y="241.3845">any remaining collateral</text></g><!--link vfc to makeAddTypeInvitation--><g id="link_vfc_makeAddTypeInvitation"><path d="M1242.8,285.9856 C1214.28,354.0956 1155.21,495.1256 1136.98,538.6556 " fill="none" id="vfc-to-makeAddTypeInvitation" style="stroke:#181818;stroke-width:1.0;"/><polygon fill="#181818" points="1134.69,543.1356,1141.8513,536.3743,1136.6181,538.5224,1134.47,533.2892,1134.69,543.1356" style="stroke:#181818;stroke-width:1.0;"/></g><!--link Borrower to getCurrentDebt--><g id="link_Borrower_getCurrentDebt"><path d="M416.75,285.9856 C417.2,353.9556 418.12,494.5456 418.41,538.3856 " fill="none" id="Borrower-to-getCurrentDebt" style="stroke:#181818;stroke-width:1.0;"/><polygon fill="#181818" points="418.45,543.1356,422.3985,534.1129,418.4214,538.1357,414.3986,534.1586,418.45,543.1356" style="stroke:#181818;stroke-width:1.0;"/><text fill="#000000" font-family="sans-serif" font-size="13" lengthAdjust="spacing" textLength="122" x="418.5" y="336.814">how much do I owe</text></g><!--link Borrower to getCollateralAmount--><g id="link_Borrower_getCollateralAmount"><path d="M448.47,256.5956 C478.26,265.8356 521.57,283.9656 545.5,315.7456 C598.26,385.8056 596.79,499.5156 594.53,538.2956 " fill="none" id="Borrower-to-getCollateralAmount" style="stroke:#181818;stroke-width:1.0;"/><polygon fill="#181818" points="594.17,542.8556,598.7532,534.1381,594.4988,537.8664,590.7705,533.6121,594.17,542.8556" style="stroke:#181818;stroke-width:1.0;"/><text fill="#000000" font-family="sans-serif" font-size="13" lengthAdjust="spacing" textLength="97" x="576.5" y="329.314">how much did I</text><text fill="#000000" font-family="sans-serif" font-size="13" lengthAdjust="spacing" textLength="127" x="563.5" y="344.6245">deposit as collateral</text></g><text fill="#888888" font-family="sans-serif" font-size="10" lengthAdjust="spacing" textLength="29" x="927.25" y="927.4136">v0.0.1</text><!--SRC=[ZLHDZzem4BtdLuno1ssl72fbwOSuL4K2zRINmHx0nR4ZUmADAlvxnmcxk2ZHRWw8ZD-ycNdpuYEXfW3LmGUZODD5fZh2puO2id47MFgwGTVDYxttBC3pq_nf_gbWmvRW5xQMlw5Y7xgYY2VZ6WnOWv8axyZnXZk11LACxc0fWsZQf-Gj_U7AceEh1GrAVYWKHT5JGfdpBmDX2k89uRi_Kt3e59M04SvxzPhox4FmbyJXl2QezEysyZFQX8qhTpOiOtatd9PBwoFrHUv7vIrLYdC9VmkGfm_apTpYRsTbq-wiKTLwLMP7wL4cA97WGBpqrgACX_O7EZn8Z-EuBxJZLOpj963Jxg8Afka76OUi-tQslZ4gJa2-MagZI4SVu1i49xrEkvjYl6jOrRvr_0QxFeYbXbMAbiGJUjLueahhRTTGjhN_2Q_ttGnEoRaoddxB8omZPp1hPvzXp1R5Q8CJxiehJ866KkzIZFddGTuCqeOWdr1oq4sXQ_7wHO1KI_qypBK0tv23Sue2EWqSqCMzuDLRlM8a3sPQ2FjWLYADbEo7dMzv8Hy-1qDd4k8Eck0LaOvJyFW-Vbgl1Q3M81T0e5gycZMVWY_Ek6IwIEbDq-q_7mciHmUxWI-hP2Tii02LeaDQakjY-AW3NgH6QbhAet7fuipaa_jfa6lSrVUgUj0ZM-C2Zlu2TQkEe3siG70Z-0Tdv4b6IzQBqzJuQ3ZTbbbZ_m00]--></g></svg>