<?xml version="1.0" encoding="UTF-8"?>
<svg width="100px" height="116px" viewBox="0 0 100 116" version="1.1" xmlns="http://www.w3.org/2000/svg" xmlns:xlink="http://www.w3.org/1999/xlink">
    <title>Build-logo-symbol</title>
    <g id="MAIN" stroke="none" stroke-width="1" fill="none" fill-rule="evenodd">
        <g id="BRANDING-PAGE" transform="translate(-359.000000, -2172.000000)" fill-rule="nonzero">
            <g id="LOGO-SYMBOL-Copy" transform="translate(209.000000, 1995.000000)">
                <g id="Group" transform="translate(0.000000, 102.000000)">
                    <g id="Build-logo-symbol" transform="translate(150.000000, 75.000000)">
                        <polygon id="Path" fill="#EE2F51" points="0 28.868472 50 57.7369439 100 28.868472 50 -4.29486663e-15"></polygon>
                        <polygon id="Path" fill="#C32942" points="0 28.868472 50 57.7369439 50 115.473888 0 86.6054159"></polygon>
                        <polygon id="Path" fill="#7D1729" points="100 28.868472 50 57.7369439 50 115.473888 100 86.6054159"></polygon>
                        <polygon id="Path" fill="#EE2F51" points="16.6767408 76.9825919 33.3413926 67.3597679 33.3413926 86.6054159"></polygon>
                        <polygon id="Path" fill="#7D1729" points="33.3353482 67.3597679 16.6646518 57.7369439 16.6646518 76.9825919"></polygon>
                        <polygon id="Path" fill="#EE2F51" points="83.3232592 76.9825919 66.6586074 67.3597679 66.6586074 86.6054159"></polygon>
                        <polygon id="Path" fill="#C32942" points="66.6646518 67.3597679 83.3353482 57.7369439 83.3353482 76.9825919"></polygon>
                        <polygon id="Path" fill="#7D1729" points="33.3353482 28.868472 50 19.245648 50 38.4912959"></polygon>
                        <polygon id="Path" fill="#C32942" points="66.6646518 28.868472 50 19.245648 50 38.4912959"></polygon>
                    </g>
                </g>
            </g>
        </g>
    </g>
</svg>
