<svg width="155" height="36" xmlns="http://www.w3.org/2000/svg" xmlns:xlink="http://www.w3.org/1999/xlink"><defs><path id="a" d="M.178.185h14.593v21.281H.178z"/><path id="c" d="M0 34.094h154.94V.165H0z"/></defs><g fill="none" fill-rule="evenodd"><path d="M22.338 33.822h33.506V.316H22.338v33.506zm11.169-11.169h11.168V11.484H33.507v11.17zM0 22.653h11.169V11.484H0z" fill="#D73252"/><path d="M71.342 20.282h6.26l-3.147-8.54-3.113 8.54zm13.221 7.251h-4.318l-1.44-3.93h-8.668l-1.439 3.93h-4.317l7.965-20.33h4.251l7.966 20.33z" fill="#000"/><g transform="translate(0 .15)"><g transform="translate(85.55 12.627)"><mask id="b" fill="#fff"><use xlink:href="#a"/></mask><path d="M10.035 4.658C9.4 3.912 8.58 3.539 7.575 3.539c-.96 0-1.751.39-2.376 1.17-.625.779-.937 1.767-.937 2.964 0 1.198.306 2.174.92 2.931.614.757 1.411 1.135 2.394 1.135 1.026 0 1.851-.367 2.476-1.1.625-.735.937-1.723.937-2.966 0-1.265-.318-2.27-.954-3.015zm4.736 9.542c0 2.1-.625 3.795-1.874 5.083-1.25 1.287-3.08 2.183-5.422 2.183-2.979 0-5.267-1.377-6.968-3.706L2.7 15.685c1.329 1.501 3.395 3.02 5.855 2.184 1.812-.616 2.2-2.347 2.2-3.567v-1.14h-.167a3.207 3.207 0 01-.118.204c-.055.09-.19.248-.402.474a3.677 3.677 0 01-.719.593c-.268.17-.647.322-1.138.458a6.023 6.023 0 01-1.606.203c-1.852 0-3.386-.7-4.603-2.1C.786 11.592.178 9.796.178 7.604c0-2.236.62-4.032 1.858-5.387C3.274.863 4.842.185 6.739.185a6.32 6.32 0 011.84.254c.558.17 1.004.378 1.339.627.335.248.62.497.854.745.234.249.396.452.485.61l.134.271h.134L12.16.524h2.61V14.2z" fill="#000" mask="url(#b)"/></g><path d="M112.783 23.35c.636-.768.954-1.796.954-3.083 0-1.265-.318-2.287-.954-3.067-.636-.78-1.445-1.169-2.427-1.169-1.004 0-1.824.39-2.46 1.17-.636.779-.954 1.8-.954 3.066 0 1.287.312 2.315.937 3.083.625.768 1.45 1.152 2.477 1.152.982 0 1.79-.384 2.427-1.152m2.778 2.321c-1.417 1.367-3.152 2.05-5.205 2.05-2.075 0-3.821-.683-5.238-2.05-1.417-1.366-2.125-3.145-2.125-5.336 0-2.214.708-4.022 2.125-5.422 1.417-1.4 3.163-2.1 5.238-2.1 2.053 0 3.788.7 5.205 2.1 1.416 1.4 2.125 3.208 2.125 5.422 0 2.19-.709 3.97-2.125 5.336m13.93-9.098h-1.873c-.96 0-1.735.311-2.327.932-.59.622-.886 1.463-.886 2.524v7.353h-4.017v-14.23h2.51l.569 2.1h.201c.737-1.4 2.042-2.1 3.916-2.1h1.907v3.421z" fill="#000"/><mask id="d" fill="#fff"><use xlink:href="#c"/></mask><path d="M131.708 27.383h4.017V13.15h-4.017v14.232zm.368-17.112c-.446-.43-.67-.983-.67-1.66 0-.678.224-1.237.67-1.678.446-.44 1.005-.66 1.674-.66.67 0 1.233.22 1.69.66.458.44.686 1 .686 1.678 0 .677-.228 1.23-.686 1.66-.457.43-1.02.644-1.69.644-.67 0-1.228-.215-1.674-.644zm8.268 15.349c-1.362-1.4-2.042-3.184-2.042-5.353 0-2.169.68-3.954 2.042-5.354 1.36-1.4 3.146-2.1 5.355-2.1.893 0 1.707.107 2.443.32.737.216 1.25.425 1.54.628l.435.339-1.038 2.914c-.87-.565-1.874-.847-3.012-.847-1.093 0-1.986.373-2.678 1.118-.691.745-1.037 1.74-1.037 2.982 0 1.265.346 2.264 1.037 2.998.692.735 1.585 1.102 2.678 1.102.513 0 1.02-.074 1.523-.22.502-.147.876-.288 1.121-.424l.368-.203 1.005 2.88c-.112.09-.274.209-.486.356-.212.146-.692.344-1.44.592-.747.249-1.566.373-2.459.373-2.21 0-3.994-.7-5.355-2.1" fill="#000" mask="url(#d)"/><path d="M154.94 26.27a1.451 1.451 0 11-2.902 0 1.451 1.451 0 012.902 0" fill="#FFF" mask="url(#d)"/><path d="M153.49 24.82a1.451 1.451 0 100 2.902 1.451 1.451 0 000-2.902m0 .255a1.197 1.197 0 010 2.391 1.196 1.196 0 01-.001-2.391" fill="#000" mask="url(#d)"/><path fill="#000" mask="url(#d)" d="M152.562 25.872h.733v.192h-.256v.73h-.22v-.73h-.257zm1.496.413l-.196.264h-.092l-.198-.266v.51h-.218l.001-.922h.178l.282.396.283-.396h.177l.002.923h-.219z"/></g></g></svg>